# MagicaVoxel @ Ephtracy

# group
g man

# material
mtllib man.mtl
usemtl palette

# normals
vn -1 0 0
vn 1 0 0
vn 0 0 1
vn 0 0 -1
vn 0 -1 0
vn 0 1 0

# texcoords
vt 0.0214844 0.5
vt 0.0253906 0.5
vt 0.0292969 0.5
vt 0.306641 0.5
vt 0.595703 0.5

# verts
v -1 0 1.5
v -1 0 0.5
v -1 0 -0.5
v -1 0 -1.5
v -1 1 1.5
v -1 1 0.5
v -1 1 -0.5
v -1 1 -1.5
v -1 3 0.5
v -1 3 -0.5
v -1 4 1.5
v -1 4 -1.5
v -1 6 3.5
v -1 6 2.5
v -1 6 1.5
v -1 6 -1.5
v -1 6 -2.5
v -1 6 -3.5
v -1 7 3.5
v -1 7 2.5
v -1 7 0.5
v -1 7 -0.5
v -1 7 -2.5
v -1 7 -3.5
v -1 8 1.5
v -1 8 0.5
v -1 8 -0.5
v -1 8 -1.5
v -1 10 1.5
v -1 10 0.5
v -1 10 -0.5
v -1 10 -1.5
v -1 11 0.5
v -1 11 -0.5
v 0 1 1.5
v 0 1 0.5
v 0 1 -0.5
v 0 1 -1.5
v 0 3 0.5
v 0 3 -0.5
v 0 4 1.5
v 0 4 -1.5
v 0 6 3.5
v 0 6 2.5
v 0 6 1.5
v 0 6 -1.5
v 0 6 -2.5
v 0 6 -3.5
v 0 7 3.5
v 0 7 2.5
v 0 7 0.5
v 0 7 -0.5
v 0 7 -2.5
v 0 7 -3.5
v 0 8 1.5
v 0 8 0.5
v 0 8 -0.5
v 0 8 -1.5
v 0 9 0.5
v 0 9 -0.5
v 0 10 1.5
v 0 10 0.5
v 0 10 -0.5
v 0 10 -1.5
v 0 11 0.5
v 0 11 -0.5
v 1 0 1.5
v 1 0 0.5
v 1 0 -0.5
v 1 0 -1.5
v 1 1 1.5
v 1 1 0.5
v 1 1 -0.5
v 1 1 -1.5
v 1 8 0.5
v 1 8 -0.5
v 1 9 0.5
v 1 9 -0.5
v -1 6 3.5
v -1 7 3.5
v 0 6 3.5
v 0 7 3.5
v -1 0 1.5
v -1 1 1.5
v -1 4 1.5
v -1 6 1.5
v -1 8 1.5
v -1 10 1.5
v 0 1 1.5
v 0 4 1.5
v 0 6 1.5
v 0 8 1.5
v 0 10 1.5
v 1 0 1.5
v 1 1 1.5
v -1 7 0.5
v -1 8 0.5
v -1 10 0.5
v -1 11 0.5
v 0 7 0.5
v 0 8 0.5
v 0 9 0.5
v 0 10 0.5
v 0 11 0.5
v 1 8 0.5
v 1 9 0.5
v -1 0 -0.5
v -1 1 -0.5
v -1 3 -0.5
v 0 1 -0.5
v 0 3 -0.5
v 1 0 -0.5
v 1 1 -0.5
v -1 0 0.5
v -1 1 0.5
v -1 3 0.5
v 0 1 0.5
v 0 3 0.5
v 1 0 0.5
v 1 1 0.5
v -1 7 -0.5
v -1 8 -0.5
v -1 10 -0.5
v -1 11 -0.5
v 0 7 -0.5
v 0 8 -0.5
v 0 9 -0.5
v 0 10 -0.5
v 0 11 -0.5
v 1 8 -0.5
v 1 9 -0.5
v -1 0 -1.5
v -1 1 -1.5
v -1 4 -1.5
v -1 6 -1.5
v -1 8 -1.5
v -1 10 -1.5
v 0 1 -1.5
v 0 4 -1.5
v 0 6 -1.5
v 0 8 -1.5
v 0 10 -1.5
v 1 0 -1.5
v 1 1 -1.5
v -1 6 -3.5
v -1 7 -3.5
v 0 6 -3.5
v 0 7 -3.5
v -1 0 1.5
v 1 0 1.5
v -1 0 0.5
v 1 0 0.5
v -1 0 -0.5
v 1 0 -0.5
v -1 0 -1.5
v 1 0 -1.5
v -1 3 0.5
v 0 3 0.5
v -1 3 -0.5
v 0 3 -0.5
v -1 6 3.5
v 0 6 3.5
v -1 6 2.5
v 0 6 2.5
v -1 6 1.5
v 0 6 1.5
v -1 6 -1.5
v 0 6 -1.5
v -1 6 -2.5
v 0 6 -2.5
v -1 6 -3.5
v 0 6 -3.5
v -1 8 1.5
v 0 8 1.5
v -1 8 0.5
v 0 8 0.5
v 1 8 0.5
v -1 8 -0.5
v 0 8 -0.5
v 1 8 -0.5
v -1 8 -1.5
v 0 8 -1.5
v 0 1 1.5
v 1 1 1.5
v 0 1 0.5
v 1 1 0.5
v 0 1 -0.5
v 1 1 -0.5
v 0 1 -1.5
v 1 1 -1.5
v -1 7 3.5
v 0 7 3.5
v -1 7 2.5
v 0 7 2.5
v -1 7 0.5
v 0 7 0.5
v -1 7 -0.5
v 0 7 -0.5
v -1 7 -2.5
v 0 7 -2.5
v -1 7 -3.5
v 0 7 -3.5
v 0 9 0.5
v 1 9 0.5
v 0 9 -0.5
v 1 9 -0.5
v -1 10 1.5
v 0 10 1.5
v -1 10 0.5
v 0 10 0.5
v -1 10 -0.5
v 0 10 -0.5
v -1 10 -1.5
v 0 10 -1.5
v -1 11 0.5
v 0 11 0.5
v -1 11 -0.5
v 0 11 -0.5

# faces
f 5/2/1 2/2/1 1/2/1
f 6/2/1 2/2/1 5/2/1
f 7/2/1 4/2/1 3/2/1
f 8/2/1 4/2/1 7/2/1
f 9/4/1 6/4/1 5/4/1
f 10/4/1 8/4/1 7/4/1
f 11/4/1 9/4/1 5/4/1
f 11/4/1 10/4/1 9/4/1
f 12/4/1 8/4/1 10/4/1
f 12/4/1 10/4/1 11/4/1
f 15/5/1 12/5/1 11/5/1
f 16/5/1 12/5/1 15/5/1
f 19/1/1 14/1/1 13/1/1
f 20/5/1 16/5/1 15/5/1
f 20/1/1 14/1/1 19/1/1
f 20/5/1 15/5/1 14/5/1
f 20/5/1 17/5/1 16/5/1
f 21/5/1 17/5/1 20/5/1
f 22/5/1 17/5/1 21/5/1
f 23/1/1 18/1/1 17/1/1
f 23/5/1 17/5/1 22/5/1
f 24/1/1 18/1/1 23/1/1
f 26/1/1 22/1/1 21/1/1
f 27/1/1 22/1/1 26/1/1
f 29/1/1 26/1/1 25/1/1
f 29/1/1 28/1/1 27/1/1
f 29/1/1 27/1/1 26/1/1
f 30/1/1 28/1/1 29/1/1
f 31/1/1 28/1/1 30/1/1
f 32/1/1 28/1/1 31/1/1
f 33/1/1 31/1/1 30/1/1
f 34/1/1 31/1/1 33/1/1
f 35/4/2 36/4/2 39/4/2
f 37/4/2 38/4/2 40/4/2
f 35/4/2 39/4/2 41/4/2
f 39/4/2 40/4/2 41/4/2
f 40/4/2 38/4/2 42/4/2
f 41/4/2 40/4/2 42/4/2
f 41/5/2 42/5/2 45/5/2
f 45/5/2 42/5/2 46/5/2
f 43/1/2 44/1/2 49/1/2
f 45/5/2 46/5/2 50/5/2
f 49/1/2 44/1/2 50/1/2
f 44/5/2 45/5/2 50/5/2
f 46/5/2 47/5/2 50/5/2
f 50/5/2 47/5/2 51/5/2
f 51/5/2 47/5/2 52/5/2
f 47/1/2 48/1/2 53/1/2
f 52/5/2 47/5/2 53/5/2
f 53/1/2 48/1/2 54/1/2
f 51/1/2 52/1/2 56/1/2
f 56/1/2 52/1/2 57/1/2
f 55/1/2 56/1/2 59/1/2
f 57/1/2 58/1/2 60/1/2
f 55/1/2 59/1/2 61/1/2
f 59/1/2 60/1/2 61/1/2
f 61/1/2 60/1/2 62/1/2
f 60/1/2 58/1/2 63/1/2
f 62/1/2 60/1/2 63/1/2
f 63/1/2 58/1/2 64/1/2
f 62/1/2 63/1/2 65/1/2
f 65/1/2 63/1/2 66/1/2
f 67/2/2 68/2/2 71/2/2
f 71/2/2 68/2/2 72/2/2
f 69/2/2 70/2/2 73/2/2
f 73/2/2 70/2/2 74/2/2
f 75/3/2 76/3/2 77/3/2
f 77/3/2 76/3/2 78/3/2
f 81/1/3 80/1/3 79/1/3
f 82/1/3 80/1/3 81/1/3
f 89/2/3 84/2/3 83/2/3
f 89/4/3 85/4/3 84/4/3
f 90/5/3 86/5/3 85/5/3
f 90/4/3 85/4/3 89/4/3
f 91/5/3 86/5/3 90/5/3
f 92/1/3 88/1/3 87/1/3
f 93/1/3 88/1/3 92/1/3
f 94/2/3 89/2/3 83/2/3
f 95/2/3 89/2/3 94/2/3
f 100/1/3 97/1/3 96/1/3
f 101/1/3 97/1/3 100/1/3
f 103/1/3 99/1/3 98/1/3
f 104/1/3 99/1/3 103/1/3
f 105/3/3 102/3/3 101/3/3
f 106/3/3 102/3/3 105/3/3
f 110/2/3 108/2/3 107/2/3
f 110/4/3 109/4/3 108/4/3
f 111/4/3 109/4/3 110/4/3
f 112/2/3 110/2/3 107/2/3
f 113/2/3 110/2/3 112/2/3
f 114/2/4 115/2/4 117/2/4
f 115/4/4 116/4/4 117/4/4
f 117/4/4 116/4/4 118/4/4
f 114/2/4 117/2/4 119/2/4
f 119/2/4 117/2/4 120/2/4
f 121/1/4 122/1/4 125/1/4
f 125/1/4 122/1/4 126/1/4
f 123/1/4 124/1/4 128/1/4
f 128/1/4 124/1/4 129/1/4
f 126/3/4 127/3/4 130/3/4
f 130/3/4 127/3/4 131/3/4
f 132/2/4 133/2/4 138/2/4
f 133/4/4 134/4/4 138/4/4
f 134/5/4 135/5/4 139/5/4
f 138/4/4 134/4/4 139/4/4
f 139/5/4 135/5/4 140/5/4
f 136/1/4 137/1/4 141/1/4
f 141/1/4 137/1/4 142/1/4
f 132/2/4 138/2/4 143/2/4
f 143/2/4 138/2/4 144/2/4
f 145/1/4 146/1/4 147/1/4
f 147/1/4 146/1/4 148/1/4
f 151/2/5 150/2/5 149/2/5
f 152/2/5 150/2/5 151/2/5
f 155/2/5 154/2/5 153/2/5
f 156/2/5 154/2/5 155/2/5
f 159/4/5 158/4/5 157/4/5
f 160/4/5 158/4/5 159/4/5
f 163/1/5 162/1/5 161/1/5
f 164/1/5 162/1/5 163/1/5
f 165/5/5 164/5/5 163/5/5
f 166/5/5 164/5/5 165/5/5
f 169/5/5 168/5/5 167/5/5
f 170/5/5 168/5/5 169/5/5
f 171/1/5 170/1/5 169/1/5
f 172/1/5 170/1/5 171/1/5
f 175/1/5 174/1/5 173/1/5
f 176/1/5 174/1/5 175/1/5
f 179/3/5 177/3/5 176/3/5
f 180/3/5 177/3/5 179/3/5
f 181/1/5 179/1/5 178/1/5
f 182/1/5 179/1/5 181/1/5
f 183/2/6 184/2/6 185/2/6
f 185/2/6 184/2/6 186/2/6
f 187/2/6 188/2/6 189/2/6
f 189/2/6 188/2/6 190/2/6
f 191/1/6 192/1/6 193/1/6
f 193/1/6 192/1/6 194/1/6
f 193/5/6 194/5/6 195/5/6
f 195/5/6 194/5/6 196/5/6
f 197/5/6 198/5/6 199/5/6
f 199/5/6 198/5/6 200/5/6
f 199/1/6 200/1/6 201/1/6
f 201/1/6 200/1/6 202/1/6
f 203/3/6 204/3/6 205/3/6
f 205/3/6 204/3/6 206/3/6
f 207/1/6 208/1/6 209/1/6
f 209/1/6 208/1/6 210/1/6
f 211/1/6 212/1/6 213/1/6
f 213/1/6 212/1/6 214/1/6
f 215/1/6 216/1/6 217/1/6
f 217/1/6 216/1/6 218/1/6
